<svg id="Слой_1" data-name="Слой 1" xmlns="http://www.w3.org/2000/svg" xmlns:xlink="http://www.w3.org/1999/xlink" viewBox="0 0 516.79 545.09"><defs><style>.cls-1{fill:none;}.cls-2{clip-path:url(#clip-path);}.cls-3{fill:#eaa124;}.cls-4{fill:#1b48ed;}</style><clipPath id="clip-path" transform="translate(0 -133.69)"><rect class="cls-1" x="4.43" y="4.5" width="1679" height="872"/></clipPath></defs><title>fav</title><g class="cls-2"><path class="cls-3" d="M213,194.83c-4.47-19.63-20-44.6-1-61.13,15.45,26.88,25.68,56.41,34.12,86.11,3.21,15.47,9.47,36.51-7.46,46.46C226,244.07,220.48,219,213,194.83" transform="translate(0 -133.69)"/><path class="cls-3" d="M300.54,251.36c-7.41-34.35-10.81-72.18,2.81-105.47,10.41,22.46,9.29,47.83,8.35,71.92-1.43,11.62-.13,26-11.16,33.55" transform="translate(0 -133.69)"/><path class="cls-3" d="M367.57,261.44c-3-30.19,10.72-59.19,30.59-81.34,10.63,9.11,8.75,23.3,5.4,35.41-5.71,21.44-15.32,41.6-25.72,61.09-4-4.55-10.72-8.22-10.27-15.16" transform="translate(0 -133.69)"/><path class="cls-3" d="M103.52,210.83c-5.94-8.53,3.48-13.66,9.15-18.52,26.71,18.88,53.54,37.93,76.55,61.22,7.68,7.29,12.28,16.89,16.08,26.57-18.67,8.22-33.36-8.22-47.16-18-19.16-15.91-40.77-30.19-54.62-51.23" transform="translate(0 -133.69)"/><path class="cls-3" d="M464.57,252.87c15-10.17,35.41-10,51.85-3.27,2.68,10.74-9.42,16.4-16.35,22.1a533.29,533.29,0,0,1-85.7,43.14c-7.41,4-12.91-4.91-18.44-8.13,21.17-19.94,43.72-38.63,68.64-53.84" transform="translate(0 -133.69)"/><path class="cls-3" d="M265.66,269.36c71.81-15.21,149.11,33.2,166.75,103.48,9.51,39.25,4.51,83.14-19,116.83-22.19,31.92-57,56-96.06,62.15-33,5-68.28.18-97.26-16.93C177.19,509.6,146.38,462.26,147.59,412c-2.86-67.5,51.13-131.46,118.08-142.6" transform="translate(0 -133.69)"/><path class="cls-3" d="M76.81,320.37c-12.19-6.81-4.69-27,9.34-21.57,25.1,8.4,53.72,15.74,71.27,36.77-27.38,5.84-57-.84-80.61-15.2" transform="translate(0 -133.69)"/><path class="cls-3" d="M8.22,373.94c21.84-2,43.45,3.54,65.2,4.82,17.19,1.59,34.79,0,51.58,4.55,5.5,10.3-12.1,12.73-19,15.92-35,5.83-72.57,3.4-106-9,2.37-5.48,1.65-13.61,8.22-16.27" transform="translate(0 -133.69)"/><path class="cls-3" d="M38.63,514c29.07-14.54,59.44-26.52,89.81-38,6.25-2.87,23.22,0,14.83,9.24-16.48,16.53-39.25,24.93-60.6,33.51-14.25,5.79-33.45,9.46-44-4.73" transform="translate(0 -133.69)"/><path class="cls-3" d="M425.37,500.5c2.54-17.82,21.08-5.92,30.05-.22,8.93,19.32,26.93,31.87,42.83,45.22-6,1.15-12.06,2.3-18.09,3.49-19.52-13.88-46.31-24.71-54.79-48.49" transform="translate(0 -133.69)"/><path class="cls-3" d="M126.07,561.5c9.6-13.3,16.75-31.52,35.86-32.8-1.29,23.38-16.52,42.3-29.56,60.65-11.88,15-23.22,31.74-40.51,41.11-6.3-.66-10.54-5-12.9-10.48,12.64-21.75,33.09-37.66,47.11-58.48" transform="translate(0 -133.69)"/><path class="cls-3" d="M362.4,552.17c18.35-8,28.49,11.94,35.68,25.11,8.84,17.81,18.62,39.83,6.57,58.53-16.7-26.17-38.54-51.9-42.25-83.63" transform="translate(0 -133.69)"/><path class="cls-3" d="M224.41,560.26c4.42,5.7,10,11.54,8.66,19.4-1.34,28.82-13.71,56.1-28.36,80.63-6-3.14-14.87-6.23-13.35-14.72,3.22-30.68,19.65-58,33-85.31" transform="translate(0 -133.69)"/><path class="cls-3" d="M267.46,634.75c10.18-24.22,18.58-49.2,30.46-72.67,8.93,10.92,8,25.15,5.23,38.1-6.52,26.17-15,53-31,75.06-4.55,7.51-11.43,1.33-15.94-2.39.13-13.53,6.57-25.77,11.3-38.1" transform="translate(0 -133.69)"/><path class="cls-4" d="M236.27,298.13c17.38-5.78,36.15-8.11,54.74-7.86a214.87,214.87,0,0,1,53.14,6.1c12.47,3.3,24.39,8,36.08,12.9v54.69h-6.89c-11.12-8.33-22.66-16.44-35.88-22.21-9.26-4-19.12-7.3-29.51-8.15-15.7-1.14-32.37,1-45.58,8.75a63.81,63.81,0,0,0-26,27.79c-6.58,13-8.6,27.29-8.38,41.32.09,14.76,2.9,29.87,11.3,42.92,7.81,12.92,21.44,23.31,37.69,27.72a86.81,86.81,0,0,0,52.18-1.37c17.13-5.51,31.57-15.51,45-25.92h6.11q0,27,0,54c-9.84,3.8-19.49,8-29.69,11.05-15.58,4.47-31.72,8.08-48.23,8.41-23.46,1-47.57-.76-69.47-8.49-26.92-9.29-49.26-27.81-61-50.6-7.93-15.06-11.64-31.53-12.79-48-1.6-24.84,1.59-50.58,14.58-73.14,12.78-22.48,35.31-41,62.64-49.93" transform="translate(0 -133.69)"/></g></svg>